P2
3 3
25
6 12 8 
14 25 16 
12 18 14 
